<!--?xml version="1.0" standalone="no"?-->              <svg id="sw-js-blob-svg" viewBox="0 0 100 100" xmlns="http://www.w3.org/2000/svg">                    <defs>                         <linearGradient id="sw-gradient" x1="0" x2="1" y1="1" y2="0">                            <stop id="stop1" stop-color="rgba(248, 117, 55, 1)" offset="0%"></stop>                            <stop id="stop2" stop-color="rgba(251, 168, 31, 1)" offset="100%"></stop>                        </linearGradient>                    </defs>                <path fill="url(#sw-gradient)" d="M21.4,-28.4C25.3,-22.1,24.6,-13.2,26.7,-4.2C28.9,4.7,34,13.6,31.3,17.8C28.5,21.9,18,21.3,9.9,22.1C1.7,22.8,-4.1,25.1,-12.4,25.7C-20.8,26.4,-31.6,25.4,-34.5,20.1C-37.4,14.7,-32.4,4.9,-29.8,-4.5C-27.2,-13.9,-27.1,-23,-22.5,-29.2C-17.9,-35.3,-9,-38.6,-0.1,-38.5C8.7,-38.3,17.4,-34.7,21.4,-28.4Z" width="100%" height="100%" transform="translate(50 50)" stroke-width="0" style="transition: 0.3s;"></path>              </svg>